# xmcd
#
# Track frame offsets: 
#        150
#        8416
#        20878
#        33038
#        45774
#        55502
#        69490
#        79043
#        89581
#        102482
#        112682
#        125732
#        138246
#        149210
#        157760
#        171026
#        179651
#        188931
#        197256
#        209732
#        221828
#        234691
#        244495
#        255545
#        262509
#        279550
#        288187
#        298738
#        309651
#        318729
#        330941
#
# Disc length: 4563 seconds
#
# Revision: 0
# Processed by: cddbd v1.5.2PL0 Copyright (c) Steve Scherf et al.
# Submitted via: ExactAudioCopy v0.95a5
#
DISCID=c211d11f
DTITLE=Jerry Lee Lewis - The Road Begins
DYEAR=2008
DGENRE=Rock and Roll
TTITLE0=End Of The Road
TTITLE1=Crazy Arms
TTITLE2=Born To Lose
TTITLE3=Turn Around
TTITLE4=Matchbox
TTITLE5=Your True Love
TTITLE6=Silver Threads Among The Gold
TTITLE7=Hand Me Down My Walking Cane
TTITLE8=Roll Over Beethoven
TTITLE9=Straight A's In Love
TTITLE10=Whole Lotta Shakin' Goin' On
TTITLE11=It'll Be Me
TTITLE12=I Love You Because
TTITLE13=Great Balls Of Fire
TTITLE14=You Win Again
TTITLE15=I Want You Baby
TTITLE16=Flyin' Saucers Rock and Roll
TTITLE17=The Crawdad Song
TTITLE18=Deep Elem Blues
TTITLE19=I'm Feelin' Sorry
TTITLE20=Put Your Cat Clothes On
TTITLE21=Love Me Baby
TTITLE22=Mean Woman Blues
TTITLE23=Dixie
TTITLE24=Crazy Arms (sessions)
TTITLE25=End Of The Road (sessions)
TTITLE26=Whole Lotta Shakin' Goin' On (TV Show)
TTITLE27=Don't Stay Away ('Till Love Grows Cold) - (demo 1952)
TTITLE28=Jerry Lee's Boogie (demo 1952)
TTITLE29=I Don't Hurt Anymore (demo 1954)
TTITLE30=I Need You Now (demo 1954)
EXTD=
EXTT0=
EXTT1=
EXTT2=
EXTT3=
EXTT4=
EXTT5=
EXTT6=
EXTT7=
EXTT8=
EXTT9=
EXTT10=
EXTT11=
EXTT12=
EXTT13=
EXTT14=
EXTT15=
EXTT16=
EXTT17=
EXTT18=
EXTT19=
EXTT20=
EXTT21=
EXTT22=
EXTT23=
EXTT24=
EXTT25=
EXTT26=
EXTT27=
EXTT28=
EXTT29=
EXTT30=
PLAYORDER=
